<svg aria-hidden="true" style="position: absolute; width: 0; height: 0; overflow: hidden;" version="1.1" xmlns="http://www.w3.org/2000/svg" xmlns:xlink="http://www.w3.org/1999/xlink">
<defs>
<symbol id="icon-icon-facebook" viewBox="0 0 32 32">
<path d="M23.367 12h-4.7v-2.667c0-1.376 0.112-2.243 2.084-2.243h2.491v-4.24c-1.212-0.125-2.431-0.187-3.651-0.184-3.617 0-6.257 2.209-6.257 6.265v3.068h-4v5.333l4-0.001v12.001h5.333v-12.004l4.088-0.001 0.612-5.328z"></path>
</symbol>
<symbol id="icon-icon-linkedin" viewBox="0 0 32 32">
<path d="M8.643 4c-1.459 0-2.643 1.182-2.643 2.641s1.183 2.668 2.641 2.668c1.458 0 2.643-1.209 2.643-2.668s-1.182-2.641-2.641-2.641zM21.535 11c-2.219 0-3.489 1.16-4.098 2.314h-0.064v-2.004h-4.373v14.689h4.557v-7.271c0-1.916 0.145-3.768 2.516-3.768 2.337 0 2.371 2.185 2.371 3.889v7.15h4.557v-8.068c0-3.948-0.849-6.932-5.465-6.932zM6.363 11.311v14.689h4.561v-14.689h-4.561z"></path>
</symbol>
<symbol id="icon-icon-twitter" viewBox="0 0 32 32">
<path d="M32 5.734c-1.198 0.531-2.401 0.932-3.734 1.068 1.333-0.802 2.401-2.135 2.932-3.604-1.333 0.802-2.667 1.333-4.13 1.604-1.333-1.333-3.068-2.135-4.932-2.135-3.604 0-6.536 2.932-6.536 6.531 0 0.536 0 1.068 0.135 1.469-5.469-0.266-10.266-2.802-13.469-6.802-0.667 0.938-0.932 2.135-0.932 3.333 0 2.271 1.198 4.271 2.932 5.469-1.068-0.135-2.13-0.401-2.932-0.802 0 0 0 0 0 0.135 0 3.198 2.266 5.865 5.198 6.401-0.531 0.13-1.063 0.266-1.729 0.266-0.401 0-0.802 0-1.203-0.135 0.802 2.667 3.203 4.536 6.135 4.536-2.266 1.734-5.068 2.797-8.135 2.797-0.531 0-1.068 0-1.599-0.13 2.932 1.865 6.401 2.932 10 2.932 12.135 0 18.667-10 18.667-18.667 0-0.266 0-0.531 0-0.802 1.333-0.932 2.401-2.13 3.333-3.464z"></path>
</symbol>
</defs>
</svg>
