<!-- Generated by IcoMoon.io -->
<svg version="1.1" xmlns="http://www.w3.org/2000/svg" width="32" height="32" viewBox="0 0 32 32">
<title>icon-twitter</title>
<path d="M32 5.734c-1.198 0.531-2.401 0.932-3.734 1.068 1.333-0.802 2.401-2.135 2.932-3.604-1.333 0.802-2.667 1.333-4.13 1.604-1.333-1.333-3.068-2.135-4.932-2.135-3.604 0-6.536 2.932-6.536 6.531 0 0.536 0 1.068 0.135 1.469-5.469-0.266-10.266-2.802-13.469-6.802-0.667 0.938-0.932 2.135-0.932 3.333 0 2.271 1.198 4.271 2.932 5.469-1.068-0.135-2.13-0.401-2.932-0.802 0 0 0 0 0 0.135 0 3.198 2.266 5.865 5.198 6.401-0.531 0.13-1.063 0.266-1.729 0.266-0.401 0-0.802 0-1.203-0.135 0.802 2.667 3.203 4.536 6.135 4.536-2.266 1.734-5.068 2.797-8.135 2.797-0.531 0-1.068 0-1.599-0.13 2.932 1.865 6.401 2.932 10 2.932 12.135 0 18.667-10 18.667-18.667 0-0.266 0-0.531 0-0.802 1.333-0.932 2.401-2.13 3.333-3.464z"></path>
</svg>
